<mxfile host="app.diagrams.net" modified="2020-12-19T13:16:35.266Z" agent="5.0 (Windows)" etag="rCzKuXHVfEOMuaFg-rcB" version="14.1.1" type="github">
  <diagram id="C5RBs43oDa-KdzZeNtuy" name="Page-1">
    <mxGraphModel dx="381" dy="323" grid="1" gridSize="10" guides="1" tooltips="1" connect="1" arrows="1" fold="1" page="1" pageScale="1" pageWidth="827" pageHeight="1169" math="0" shadow="0">
      <root>
        <mxCell id="WIyWlLk6GJQsqaUBKTNV-0" />
        <mxCell id="WIyWlLk6GJQsqaUBKTNV-1" parent="WIyWlLk6GJQsqaUBKTNV-0" />
        <mxCell id="WIyWlLk6GJQsqaUBKTNV-3" value="计算当前的臂型角参数φ_current" style="rounded=1;whiteSpace=wrap;html=1;fontSize=12;glass=0;strokeWidth=1;shadow=0;" parent="WIyWlLk6GJQsqaUBKTNV-1" vertex="1">
          <mxGeometry x="419" y="250" width="140" height="40" as="geometry" />
        </mxCell>
        <mxCell id="0FRN_3Clv2ONj6F9dEt--20" value="" style="edgeStyle=orthogonalEdgeStyle;rounded=0;orthogonalLoop=1;jettySize=auto;html=1;" edge="1" parent="WIyWlLk6GJQsqaUBKTNV-1" source="0FRN_3Clv2ONj6F9dEt--1" target="WIyWlLk6GJQsqaUBKTNV-3">
          <mxGeometry relative="1" as="geometry" />
        </mxCell>
        <mxCell id="0FRN_3Clv2ONj6F9dEt--1" value="根据几何关系，计算θ4" style="rounded=1;whiteSpace=wrap;html=1;fontSize=12;glass=0;strokeWidth=1;shadow=0;" vertex="1" parent="WIyWlLk6GJQsqaUBKTNV-1">
          <mxGeometry x="419" y="140" width="140" height="40" as="geometry" />
        </mxCell>
        <mxCell id="0FRN_3Clv2ONj6F9dEt--4" value="" style="edgeStyle=orthogonalEdgeStyle;rounded=0;orthogonalLoop=1;jettySize=auto;html=1;" edge="1" parent="WIyWlLk6GJQsqaUBKTNV-1" target="0FRN_3Clv2ONj6F9dEt--3">
          <mxGeometry relative="1" as="geometry">
            <mxPoint x="489" y="290" as="sourcePoint" />
          </mxGeometry>
        </mxCell>
        <mxCell id="0FRN_3Clv2ONj6F9dEt--6" value="" style="edgeStyle=orthogonalEdgeStyle;rounded=0;orthogonalLoop=1;jettySize=auto;html=1;" edge="1" parent="WIyWlLk6GJQsqaUBKTNV-1" source="0FRN_3Clv2ONj6F9dEt--3" target="0FRN_3Clv2ONj6F9dEt--5">
          <mxGeometry relative="1" as="geometry" />
        </mxCell>
        <mxCell id="0FRN_3Clv2ONj6F9dEt--3" value="&lt;div&gt;在当前臂型角附近搜索φ，并计算对应的θ1~3、θ5~7&lt;/div&gt;" style="rounded=1;whiteSpace=wrap;html=1;fontSize=12;glass=0;strokeWidth=1;shadow=0;" vertex="1" parent="WIyWlLk6GJQsqaUBKTNV-1">
          <mxGeometry x="414" y="350" width="150" height="40" as="geometry" />
        </mxCell>
        <mxCell id="0FRN_3Clv2ONj6F9dEt--5" value="根据行程代价函数选取关节行程最短的一组逆解" style="rounded=1;whiteSpace=wrap;html=1;fontSize=12;glass=0;strokeWidth=1;shadow=0;" vertex="1" parent="WIyWlLk6GJQsqaUBKTNV-1">
          <mxGeometry x="419" y="448" width="140" height="40" as="geometry" />
        </mxCell>
      </root>
    </mxGraphModel>
  </diagram>
</mxfile>
